<svg width="66" height="24" viewBox="0 0 66 24" fill="none" xmlns="http://www.w3.org/2000/svg">
<g id="LOGO1">
<g id="Vector">
<path d="M24.2378 19.1575C24.0733 18.6131 24.4808 18.0643 25.0495 18.0643H40.7038C41.2584 18.0643 41.6637 18.588 41.5246 19.1249L40.4266 23.3646C40.3297 23.7387 39.9922 24 39.6057 24H26.3306C25.9567 24 25.627 23.7552 25.5189 23.3973L24.2378 19.1575Z" fill="#D9D9D9"/>
<path d="M21.7659 4.21005C21.6862 3.17572 22.5039 2.29244 23.5414 2.29244H42.0807C43.1181 2.29244 43.9359 3.17572 43.8561 4.21005L42.8164 17.6925C42.7449 18.6201 41.9713 19.3363 41.041 19.3363H36.6268C35.6433 19.3363 34.8461 20.1335 34.8461 21.117V22.1345C34.8461 23.118 34.0489 23.9152 33.0654 23.9152H32.1527C31.1949 23.9152 30.4087 23.1576 30.3732 22.2004L30.3307 21.0511C30.2952 20.0939 29.509 19.3363 28.5512 19.3363H24.581C23.6507 19.3363 22.8771 18.6201 22.8056 17.6925L21.7659 4.21005Z" fill="white"/>
<path d="M31.6821 21.5928C32.1257 20.8188 33.242 20.8188 33.6856 21.5928C34.1268 22.3626 33.5711 23.3216 32.6838 23.3216C31.7966 23.3216 31.2408 22.3626 31.6821 21.5928Z" fill="#54721A"/>
<path d="M21.83 5.13308L2.58154 9.37283V16.1564L22.8052 17.174C22.8052 17.174 22.254 17.8099 21.9996 18.5731C21.7452 19.3363 21.83 20.0146 22.1692 20.7354C22.5084 21.4561 23.8227 22.6857 23.8651 22.6009C23.9075 22.5161 23.443 21.3672 23.5259 20.5658C23.585 19.9954 24.2891 19.2939 24.2891 19.2939C24.2891 19.2939 23.1444 18.6579 22.9748 17.6828C22.8052 16.7076 22.8052 17.0892 22.2964 11.2807C21.7876 5.47226 21.83 5.13308 21.83 5.13308Z" fill="#3C2178"/>
<path d="M1.30961 7.84653C2.09611 7.83381 2.62394 8.94887 2.62394 9.37284V16.6228C2.62394 17.1316 2.0472 17.9916 1.30961 17.9796C0.583452 17.9677 0.122482 17.3012 0.0376865 16.6228C-0.0471087 15.9445 0.0376876 9.96641 0.0376865 9.37284C0.0376853 8.77928 0.533816 7.85908 1.30961 7.84653Z" fill="#54721A"/>
<path d="M22.3812 2.37723C22.3812 1.10529 25.6882 -0.378621 27.0449 0.0877706C27.6046 0.28017 28.2321 0.299764 28.3169 2.08046C28.3169 4.53952 28.7832 8.67066 28.7832 9.54242C28.7832 11.0263 29.4616 18.2763 29.4616 18.2763C29.4616 18.2763 26.3073 13.6006 24.8827 10.3056C23.5942 7.32553 22.3812 3.64918 22.3812 2.37723Z" fill="#54721A"/>
<path d="M22.3812 2.37723C22.3812 1.10529 25.6882 -0.378621 27.0449 0.0877706C27.6046 0.28017 28.2321 0.299764 28.3169 2.08046C28.3169 4.53952 28.7832 8.67066 28.7832 9.54242C28.7832 11.0263 29.4616 18.2763 29.4616 18.2763C29.4616 18.2763 26.3073 13.6006 24.8827 10.3056C23.5942 7.32553 22.3812 3.64918 22.3812 2.37723Z" fill="#54721A"/>
<path d="M30.352 11.3655C30.352 10.3821 31.1492 9.58483 32.1327 9.58483H33.235C34.2184 9.58483 35.0157 10.3821 35.0157 11.3655V18.1491C35.0157 19.1326 34.2184 19.9298 33.235 19.9298H32.1327C31.1492 19.9298 30.352 19.1326 30.352 18.1491V11.3655Z" fill="#3C2178"/>
<path d="M31.5847 11.5834C32.078 10.757 33.275 10.757 33.7683 11.5834C34.2742 12.4309 33.6635 13.5066 32.6765 13.5066C31.6895 13.5066 31.0788 12.4309 31.5847 11.5834Z" fill="#54721A"/>
<path d="M43.7584 5.17548L62.9874 9.41422V16.1962L42.7842 17.2135C42.7842 17.2135 43.3348 17.8493 43.589 18.6123C43.8431 19.3753 43.7584 20.0535 43.4195 20.7741C43.0807 21.4946 41.7677 22.7239 41.7254 22.6391C41.683 22.5543 42.1471 21.4058 42.0642 20.6045C42.0052 20.0342 41.3018 19.3329 41.3018 19.3329C41.3018 19.3329 42.4454 18.6971 42.6148 17.7222C42.7842 16.7473 42.7842 17.1287 43.2925 11.3217C43.8007 5.51458 43.7584 5.17548 43.7584 5.17548Z" fill="#3C2178"/>
<path d="M64.2425 7.88903C63.4397 7.87636 62.901 8.98673 62.901 9.40892V16.6284C62.901 17.135 63.4896 17.9914 64.2425 17.9794C64.9837 17.9676 65.4542 17.3039 65.5408 16.6284C65.6273 15.9529 65.5408 9.99999 65.5408 9.40892C65.5408 8.81785 65.0344 7.90152 64.2425 7.88903Z" fill="#54721A"/>
<path d="M43.2889 2.38534C43.2889 1.11065 39.9396 -0.376461 38.5656 0.0909358C37.9987 0.283751 37.3633 0.303386 37.2774 2.08792C37.2774 4.55229 36.8051 8.69234 36.8051 9.56598C36.8051 11.0531 36.118 18.3187 36.118 18.3187C36.118 18.3187 39.3126 13.6329 40.7555 10.3308C42.0604 7.34431 43.2889 3.66003 43.2889 2.38534Z" fill="#54721A"/>
<path d="M43.2889 2.38534C43.2889 1.11065 39.9396 -0.376461 38.5656 0.0909358C37.9987 0.283751 37.3633 0.303386 37.2774 2.08792C37.2774 4.55229 36.8051 8.69234 36.8051 9.56598C36.8051 11.0531 36.118 18.3187 36.118 18.3187C36.118 18.3187 39.3126 13.6329 40.7555 10.3308C42.0604 7.34431 43.2889 3.66003 43.2889 2.38534Z" fill="#54721A"/>
<path d="M25.1794 20.3538H26.1831L26.8754 23.3216H25.837L25.1794 20.3538Z" fill="#BCBCBC"/>
<path d="M26.7482 20.3538H27.7519L28.4441 23.3216H27.4058L26.7482 20.3538Z" fill="#BCBCBC"/>
<path d="M28.3169 20.3538H29.3206L30.0128 23.3216H28.9745L28.3169 20.3538Z" fill="#BCBCBC"/>
<path d="M40.6122 20.3538H39.6085L38.9163 23.3216H39.9546L40.6122 20.3538Z" fill="#BCBCBC"/>
<path d="M39.0859 20.3538H38.032L37.3052 23.3216H38.3954L39.0859 20.3538Z" fill="#BCBCBC"/>
<path d="M37.4747 20.3538H36.471L35.7788 23.3216H36.8172L37.4747 20.3538Z" fill="#BCBCBC"/>
</g>
</g>
</svg>
